<?xml version="1.0" encoding="UTF-8"?> <!DOCTYPE svg PUBLIC '-//W3C//DTD SVG 1.1//EN' 'http://www.w3.org/Graphics/SVG/1.1/DTD/svg11.dtd'><svg clip-rule="evenodd" fill-rule="evenodd" stroke-linejoin="round" stroke-miterlimit="2" version="1.1" viewBox="0 0 296 91" xml:space="preserve" xmlns="http://www.w3.org/2000/svg" xmlns:serif="http://www.serif.com/"><g transform="matrix(.82405 0 0 .82405 -401.24 -424.89)"><g transform="translate(0 .14371)" fill="#242027" fill-rule="nonzero"><g transform="matrix(1.6229 0 0 1.6229 606.23 613.08)" serif:id="New  Learning"><path d="m7.979-4.472h11.819v4.472h-17.386v-27.016h5.567v22.544z"/><path d="m31.877 0.371c-2.944 0-5.341-0.903-7.19-2.709s-2.774-4.212-2.774-7.218v-0.519c0-2.016 0.39-3.819 1.169-5.409 0.779-1.589 1.883-2.814 3.312-3.674 1.429-0.859 3.058-1.289 4.889-1.289 2.746 0 4.908 0.866 6.485 2.597 1.577 1.732 2.366 4.188 2.366 7.367v2.189h-12.784c0.173 1.311 0.695 2.363 1.567 3.154 0.873 0.792 1.977 1.188 3.312 1.188 2.066 0 3.681-0.749 4.843-2.245l2.635 2.95c-0.804 1.138-1.893 2.025-3.266 2.663-1.373 0.637-2.894 0.955-4.564 0.955zm-0.612-16.476c-1.064 0-1.927 0.358-2.589 1.076-0.662 0.717-1.085 1.744-1.271 3.08h7.459v-0.427c-0.024-1.187-0.346-2.106-0.965-2.755-0.618-0.65-1.496-0.974-2.634-0.974z"/><path d="m54.811 0c-0.248-0.482-0.427-1.082-0.539-1.8-1.298 1.447-2.987 2.171-5.065 2.171-1.967 0-3.596-0.569-4.889-1.707s-1.939-2.573-1.939-4.305c0-2.127 0.788-3.76 2.366-4.898 1.577-1.138 3.856-1.713 6.837-1.726h2.468v-1.15c0-0.928-0.238-1.67-0.715-2.227-0.476-0.556-1.227-0.835-2.254-0.835-0.903 0-1.611 0.217-2.124 0.65-0.514 0.433-0.77 1.027-0.77 1.781h-5.363c0-1.163 0.359-2.239 1.076-3.228 0.718-0.99 1.732-1.766 3.043-2.329 1.312-0.563 2.784-0.844 4.416-0.844 2.474 0 4.438 0.621 5.891 1.864 1.454 1.244 2.181 2.991 2.181 5.242v8.702c0.012 1.905 0.278 3.346 0.798 4.324v0.315h-5.418zm-4.435-3.729c0.792 0 1.521-0.177 2.189-0.529 0.668-0.353 1.163-0.826 1.485-1.42v-3.451h-2.004c-2.684 0-4.113 0.928-4.286 2.783l-0.019 0.316c0 0.668 0.235 1.218 0.705 1.651s1.114 0.65 1.93 0.65z"/><path d="m74.831-15.048c-0.73-0.099-1.373-0.148-1.93-0.148-2.028 0-3.358 0.686-3.989 2.059v13.137h-5.362v-20.076h5.065l0.149 2.393c1.076-1.843 2.566-2.764 4.471-2.764 0.594 0 1.151 0.08 1.67 0.241l-0.074 5.158z"/><path d="m82.346-20.076 0.167 2.319c1.435-1.793 3.358-2.69 5.77-2.69 2.128 0 3.711 0.624 4.75 1.874 1.039 1.249 1.571 3.117 1.596 5.603v12.97h-5.362v-12.84c0-1.138-0.248-1.964-0.743-2.477-0.494-0.513-1.317-0.77-2.467-0.77-1.509 0-2.641 0.643-3.396 1.93v14.157h-5.362v-20.076h5.047z"/><path d="m104.35 0h-5.381v-20.076h5.381v20.076zm-5.697-25.271c0-0.805 0.269-1.466 0.807-1.986 0.538-0.519 1.271-0.779 2.199-0.779 0.915 0 1.645 0.26 2.19 0.779 0.544 0.52 0.816 1.181 0.816 1.986 0 0.816-0.275 1.484-0.826 2.003-0.55 0.52-1.277 0.78-2.18 0.78s-1.63-0.26-2.18-0.78c-0.55-0.519-0.826-1.187-0.826-2.003z"/><path d="m113.7-20.076 0.167 2.319c1.435-1.793 3.359-2.69 5.771-2.69 2.127 0 3.711 0.624 4.75 1.874 1.039 1.249 1.571 3.117 1.595 5.603v12.97h-5.362v-12.84c0-1.138-0.247-1.964-0.742-2.477s-1.318-0.77-2.468-0.77c-1.509 0-2.641 0.643-3.395 1.93v14.157h-5.363v-20.076h5.047z"/><path d="m129.27-10.187c0-3.08 0.732-5.56 2.198-7.44s3.442-2.82 5.928-2.82c2.202 0 3.916 0.754 5.14 2.263l0.223-1.892h4.861v19.408c0 1.757-0.399 3.284-1.197 4.583s-1.92 2.288-3.367 2.969c-1.448 0.68-3.142 1.02-5.084 1.02-1.472 0-2.907-0.293-4.305-0.881s-2.455-1.345-3.173-2.273l2.375-3.266c1.336 1.497 2.956 2.245 4.861 2.245 1.423 0 2.53-0.38 3.322-1.141 0.791-0.76 1.187-1.84 1.187-3.237v-1.077c-1.237 1.398-2.863 2.097-4.88 2.097-2.412 0-4.363-0.943-5.854-2.829-1.49-1.887-2.235-4.389-2.235-7.506v-0.223zm5.362 0.39c0 1.818 0.365 3.244 1.095 4.277 0.729 1.033 1.731 1.549 3.005 1.549 1.633 0 2.802-0.612 3.507-1.837v-8.442c-0.717-1.225-1.874-1.837-3.469-1.837-1.287 0-2.298 0.526-3.034 1.577-0.736 1.052-1.104 2.623-1.104 4.713z"/></g><g transform="matrix(1.6229 0 0 1.6229 604.61 560.62)" serif:id="New  Learning"><path d="m23.527 0h-2.282l-15.53-23.119v23.119h-2.301v-27.016h2.301l15.549 23.138v-23.138h2.263v27.016z"/><path d="m37.647 0.371c-1.707 0-3.25-0.42-4.629-1.262-1.379-0.841-2.452-2.013-3.219-3.516s-1.151-3.188-1.151-5.056v-0.798c0-1.929 0.375-3.667 1.123-5.214 0.748-1.546 1.791-2.761 3.126-3.646 1.336-0.884 2.784-1.326 4.342-1.326 2.437 0 4.37 0.832 5.799 2.495 1.428 1.664 2.143 3.937 2.143 6.819v1.243h-14.325v0.427c0 2.276 0.653 4.172 1.958 5.687s2.947 2.273 4.926 2.273c1.188 0 2.236-0.216 3.145-0.649s1.735-1.126 2.477-2.078l1.392 1.057c-1.633 2.363-4.002 3.544-7.107 3.544zm-0.408-18.926c-1.67 0-3.077 0.613-4.221 1.837-1.144 1.225-1.84 2.87-2.087 4.936h12.042v-0.241c-0.062-1.93-0.613-3.501-1.652-4.713-1.039-1.213-2.399-1.819-4.082-1.819z"/><path d="m54.31-4.62 0.334 1.725 0.445-1.818 4.824-15.363h1.893l4.768 15.233 0.52 2.115 0.427-1.948 4.119-15.4h2.3l-5.844 20.076h-1.893l-5.158-15.92-0.241-1.095-0.241 1.114-5.066 15.901h-1.893l-5.826-20.076h2.283l4.249 15.456z"/></g></g><g transform="translate(.386 -2.0898)" serif:id="Shape now"><g transform="matrix(2.2621 0 0 2.2621 -624.1 389.98)"><clipPath id="a"><rect x="491.11" y="73.09" width="47.208" height="23.611"/></clipPath><g clip-path="url(#a)"><path d="m514.71 49.493c13.027 0 23.604 10.577 23.604 23.604s-10.577 23.604-23.604 23.604-23.604-10.577-23.604-23.604 10.577-23.604 23.604-23.604zm0 7.51c8.882 0 16.094 7.212 16.094 16.094s-7.212 16.094-16.094 16.094-16.094-7.212-16.094-16.094 7.212-16.094 16.094-16.094z" fill="#ffb703"/></g></g><g transform="matrix(1.2339 0 0 1.2339 -94.853 465.13)"><path d="m514.71 49.493c13.027 0 23.604 10.577 23.604 23.604s-10.577 23.604-23.604 23.604-23.604-10.577-23.604-23.604 10.577-23.604 23.604-23.604zm0 13.769c5.428 0 9.835 4.407 9.835 9.835s-4.407 9.835-9.835 9.835-9.835-4.407-9.835-9.835 4.407-9.835 9.835-9.835z" fill="#b8001c"/></g></g></g></svg>
